# xmcd
#
# Track frame offsets:
#	150
#	16017
#	37287
#	61732
#	95507
#	111445
#	143950
#	160902
#	196807
#	212795
#
# Disc length: 3246 seconds
#
# Revision: 1
# Processed by: cddbd v1.5.2PL0 Copyright (c) Steve Scherf et al.
# Submitted via: audiograbber 1.83.01
#
DISCID=8a0cac0a
DTITLE=the larry burton band - hustler's paradise
DYEAR=1900
DGENRE=Blues
TTITLE0=it's my life
TTITLE1=dark clouds
TTITLE2=going back home
TTITLE3=what i'm going through
TTITLE4=you're so mean to me
TTITLE5=you hurt me so bad
TTITLE6=hey, hey, hey
TTITLE7=i've got your body (he's got your mind)
TTITLE8=if you're leaving me
TTITLE9=i'm moving on
EXTD=
EXTT0=
EXTT1=
EXTT2=
EXTT3=
EXTT4=
EXTT5=
EXTT6=
EXTT7=
EXTT8=
EXTT9=
PLAYORDER=
